<?xml version="1.0" encoding="utf-8"?>
<svg width="16" height="16" fill="currentColor" class="bi bi-arrow-up" viewBox="0 0 16 16" xmlns="http://www.w3.org/2000/svg">
  <path fill-rule="evenodd" d="M 4 10 C 4.276 10 4.5 9.776 4.5 9.5 L 4.5 3.707 L 6.646 5.854 C 6.919 6.127 7.384 6.002 7.484 5.63 C 7.53 5.457 7.48 5.272 7.354 5.146 L 4.354 2.146 C 4.159 1.95 3.841 1.95 3.646 2.146 L 0.646 5.146 C 0.373 5.419 0.498 5.884 0.87 5.984 C 1.043 6.03 1.228 5.98 1.354 5.854 L 3.5 3.707 L 3.5 9.5 C 3.5 9.776 3.724 10 4 10 Z"/>
  <path fill-rule="evenodd" d="M 5 12 C 5 11.724 5.224 11.5 5.5 11.5 L 11.293 11.5 L 9.146 9.354 C 8.873 9.081 8.998 8.616 9.37 8.516 C 9.543 8.47 9.728 8.52 9.854 8.646 L 12.854 11.646 C 13.05 11.841 13.05 12.159 12.854 12.354 L 9.854 15.354 C 9.581 15.627 9.116 15.502 9.016 15.13 C 8.97 14.957 9.02 14.772 9.146 14.646 L 11.293 12.5 L 5.5 12.5 C 5.224 12.5 5 12.276 5 12 Z"/>
</svg>